<svg xmlns="http://www.w3.org/2000/svg" width="1330" height="486" viewBox="0 0 1330 486"><defs><marker id="ah" viewBox="0 0 10 10" refX="9" refY="5" markerWidth="7" markerHeight="7" orient="auto"><path d="M0,0 L10,5 L0,10 z" fill="#333333"/></marker></defs><rect width="1330" height="486" fill="#ffffff"/><rect x="20" y="120" width="200" height="62" rx="4" fill="#ECECFF" stroke="#9370DB" stroke-width="1.3"/><text x="120" y="156.95" font-family="Arial, Helvetica, DejaVu Sans, sans-serif" font-size="17" fill="#333333" text-anchor="middle">Web browser</text><rect x="20" y="212" width="200" height="76" rx="4" fill="#ECECFF" stroke="#9370DB" stroke-width="1.3"/><text x="120" y="246.45" font-family="Arial, Helvetica, DejaVu Sans, sans-serif" font-size="17" fill="#333333" text-anchor="middle">Feature phone</text><text x="120" y="265.45" font-family="Arial, Helvetica, DejaVu Sans, sans-serif" font-size="17" fill="#333333" text-anchor="middle">via USSD</text><rect x="258" y="64" width="440" height="262" rx="5" fill="#FFFFDE" stroke="#AAAA33" stroke-width="1.3"/><text x="272" y="88" font-family="Arial, Helvetica, DejaVu Sans, sans-serif" font-size="15" fill="#6b6b2a">Cloudflare Worker: one instance, no horizontal scaling</text><rect x="282" y="104" width="392" height="84" rx="4" fill="#ECECFF" stroke="#9370DB" stroke-width="1.3"/><text x="478" y="141.95" font-family="Arial, Helvetica, DejaVu Sans, sans-serif" font-size="17" fill="#333333" text-anchor="middle" font-weight="600">Next.js 15 via OpenNext</text><text x="478" y="161.95" font-family="Arial, Helvetica, DejaVu Sans, sans-serif" font-size="15" fill="#333333" text-anchor="middle">58 route files, 84 handlers</text><rect x="282" y="208" width="186" height="62" rx="4" fill="#ECECFF" stroke="#9370DB" stroke-width="1.3"/><text x="375" y="244.95" font-family="Arial, Helvetica, DejaVu Sans, sans-serif" font-size="17" fill="#333333" text-anchor="middle">Static assets</text><rect x="488" y="208" width="186" height="62" rx="4" fill="#ECECFF" stroke="#9370DB" stroke-width="1.3"/><text x="581" y="244.95" font-family="Arial, Helvetica, DejaVu Sans, sans-serif" font-size="17" fill="#333333" text-anchor="middle">Images</text><text x="282" y="300" font-family="Arial, Helvetica, DejaVu Sans, sans-serif" font-size="14.5" fill="#555555">No R2 incremental cache binding.</text><line x1="220" y1="146" x2="254" y2="154" stroke="#333333" stroke-width="1.5" marker-end="url(#ah)"/><line x1="220" y1="244" x2="254" y2="214" stroke="#333333" stroke-width="1.5" marker-end="url(#ah)"/><path d="M760,134 a120,14 0 0 1 240,0 v76 a120,14 0 0 1 -240,0 z" fill="#ECECFF" stroke="#9370DB" stroke-width="1.3"/><path d="M760,134 a120,14 0 0 0 240,0" fill="none" stroke="#9370DB" stroke-width="1.3"/><text x="880" y="173.45" font-family="Arial, Helvetica, DejaVu Sans, sans-serif" font-size="17" fill="#333333" text-anchor="middle" font-weight="600">libSQL / Turso</text><text x="880" y="192.45" font-family="Arial, Helvetica, DejaVu Sans, sans-serif" font-size="15" fill="#333333" text-anchor="middle">47 tables, single writer</text><line x1="698" y1="168" x2="756" y2="168" stroke="#333333" stroke-width="1.5" marker-end="url(#ah)"/><rect x="760" y="268" width="540" height="196" rx="5" fill="#FFFFDE" stroke="#AAAA33" stroke-width="1.3"/><text x="774" y="292" font-family="Arial, Helvetica, DejaVu Sans, sans-serif" font-size="15" fill="#6b6b2a">External, key-gated, crosses the network boundary</text><rect x="782" y="306" width="246" height="64" rx="4" fill="#ECECFF" stroke="#9370DB" stroke-width="1.3"/><text x="905" y="343.95" font-family="Arial, Helvetica, DejaVu Sans, sans-serif" font-size="17" fill="#333333" text-anchor="middle">DeepSeek v4-flash</text><rect x="1046" y="306" width="232" height="64" rx="4" fill="#ECECFF" stroke="#9370DB" stroke-width="1.3"/><text x="1162" y="343.95" font-family="Arial, Helvetica, DejaVu Sans, sans-serif" font-size="17" fill="#333333" text-anchor="middle">Speech to text / TTS</text><rect x="782" y="384" width="246" height="64" rx="4" fill="#ECECFF" stroke="#9370DB" stroke-width="1.3"/><text x="905" y="421.95" font-family="Arial, Helvetica, DejaVu Sans, sans-serif" font-size="17" fill="#333333" text-anchor="middle">Overpass and tiles</text><rect x="1046" y="384" width="232" height="64" rx="4" fill="#ECECFF" stroke="#9370DB" stroke-width="1.3"/><text x="1162" y="421.95" font-family="Arial, Helvetica, DejaVu Sans, sans-serif" font-size="17" fill="#333333" text-anchor="middle">SMS, demo mode</text><line x1="700" y1="300" x2="756" y2="300" stroke="#333333" stroke-width="1.5" marker-end="url(#ah)"/></svg>