<svg xmlns="http://www.w3.org/2000/svg" width="1300" height="480" viewBox="0 0 1300 480"><defs><marker id="ah" viewBox="0 0 10 10" refX="9" refY="5" markerWidth="7" markerHeight="7" orient="auto"><path d="M0,0 L10,5 L0,10 z" fill="#333333"/></marker></defs><rect width="1300" height="480" fill="#ffffff"/><rect x="20" y="20" width="210" height="60" rx="4" fill="#ECECFF" stroke="#9370DB" stroke-width="1.3"/><text x="125" y="55.95" font-family="Arial, Helvetica, DejaVu Sans, sans-serif" font-size="17" fill="#333333" text-anchor="middle">Anchored to ledger</text><rect x="20" y="118" width="210" height="60" rx="4" fill="#ECECFF" stroke="#9370DB" stroke-width="1.3"/><text x="125" y="153.95" font-family="Arial, Helvetica, DejaVu Sans, sans-serif" font-size="17" fill="#333333" text-anchor="middle">Allocation posted</text><line x1="125" y1="118" x2="125" y2="84" stroke="#333333" stroke-width="1.5" marker-end="url(#ah)"/><rect x="20" y="216" width="210" height="60" rx="4" fill="#ECECFF" stroke="#9370DB" stroke-width="1.3"/><text x="125" y="251.95" font-family="Arial, Helvetica, DejaVu Sans, sans-serif" font-size="17" fill="#333333" text-anchor="middle">Citizen flags it</text><line x1="125" y1="178" x2="125" y2="214" stroke="#333333" stroke-width="1.5" marker-end="url(#ah)"/><line x1="230" y1="246" x2="276" y2="246" stroke="#333333" stroke-width="1.5" marker-end="url(#ah)"/><polygon points="430,162 575,246 430,330 285,246" fill="#ECECFF" stroke="#9370DB" stroke-width="1.3"/><text x="430" y="241.75" font-family="Arial, Helvetica, DejaVu Sans, sans-serif" font-size="15" fill="#333333" text-anchor="middle">2 or more flags and</text><text x="430" y="260.75" font-family="Arial, Helvetica, DejaVu Sans, sans-serif" font-size="15" fill="#333333" text-anchor="middle">flags / residents &gt;= 0.5 ?</text><line x1="430" y1="330" x2="430" y2="398" stroke="#333333" stroke-width="1.5" marker-end="url(#ah)"/><rect x="397.16" y="346.8" width="25.68" height="21.7" fill="#ffffff" opacity="0.95"/><text x="410" y="363.04" font-family="Arial, Helvetica, DejaVu Sans, sans-serif" font-size="14" fill="#333333" text-anchor="middle">no</text><rect x="330" y="398" width="200" height="60" rx="4" fill="#ECECFF" stroke="#9370DB" stroke-width="1.3"/><text x="430" y="433.95" font-family="Arial, Helvetica, DejaVu Sans, sans-serif" font-size="17" fill="#333333" text-anchor="middle">No escalation</text><line x1="575" y1="246" x2="622" y2="246" stroke="#333333" stroke-width="1.5" marker-end="url(#ah)"/><rect x="581.74" y="224.8" width="33.52" height="21.7" fill="#ffffff" opacity="0.95"/><text x="598.5" y="241.04" font-family="Arial, Helvetica, DejaVu Sans, sans-serif" font-size="14" fill="#333333" text-anchor="middle">yes</text><rect x="622" y="216" width="210" height="62" rx="4" fill="#ECECFF" stroke="#9370DB" stroke-width="1.3"/><text x="727" y="242.95" font-family="Arial, Helvetica, DejaVu Sans, sans-serif" font-size="17" fill="#333333" text-anchor="middle" font-weight="600">Escalation created</text><text x="727" y="262.95" font-family="Arial, Helvetica, DejaVu Sans, sans-serif" font-size="15" fill="#333333" text-anchor="middle">one-way latch</text><line x1="832" y1="246" x2="878" y2="246" stroke="#333333" stroke-width="1.5" marker-end="url(#ah)"/><rect x="878" y="218" width="150" height="58" rx="4" fill="#ECECFF" stroke="#9370DB" stroke-width="1.3"/><text x="953" y="252.95" font-family="Arial, Helvetica, DejaVu Sans, sans-serif" font-size="17" fill="#333333" text-anchor="middle">pending</text><line x1="1028" y1="246" x2="1074" y2="246" stroke="#333333" stroke-width="1.5" marker-end="url(#ah)"/><rect x="1074" y="218" width="195" height="58" rx="4" fill="#ECECFF" stroke="#9370DB" stroke-width="1.3"/><text x="1171.5" y="252.95" font-family="Arial, Helvetica, DejaVu Sans, sans-serif" font-size="17" fill="#333333" text-anchor="middle">acknowledged</text><line x1="1171" y1="218" x2="1171" y2="170" stroke="#333333" stroke-width="1.5" marker-end="url(#ah)"/><rect x="1074" y="108" width="195" height="58" rx="4" fill="#ECECFF" stroke="#9370DB" stroke-width="1.3"/><text x="1171.5" y="142.95" font-family="Arial, Helvetica, DejaVu Sans, sans-serif" font-size="17" fill="#333333" text-anchor="middle">resolved</text><line x1="1171" y1="276" x2="1171" y2="322" stroke="#333333" stroke-width="1.5" marker-end="url(#ah)"/><rect x="1074" y="322" width="195" height="58" rx="4" fill="#ECECFF" stroke="#9370DB" stroke-width="1.3"/><text x="1171.5" y="356.95" font-family="Arial, Helvetica, DejaVu Sans, sans-serif" font-size="17" fill="#333333" text-anchor="middle">dismissed</text><text x="622" y="320" font-family="Arial, Helvetica, DejaVu Sans, sans-serif" font-size="14.5" fill="#555555">Only an upazila officer can move these four states.</text></svg>